<?xml version="1.0" encoding="utf-8" standalone="no"?>
<!DOCTYPE svg PUBLIC "-//W3C//DTD SVG 1.1//EN"
  "http://www.w3.org/Graphics/SVG/1.1/DTD/svg11.dtd">
<svg xmlns:xlink="http://www.w3.org/1999/xlink" width="312.833105pt" height="195.895404pt" viewBox="0 0 312.833105 195.895404" xmlns="http://www.w3.org/2000/svg" version="1.1">
 <metadata>
  <rdf:RDF xmlns:dc="http://purl.org/dc/elements/1.1/" xmlns:cc="http://creativecommons.org/ns#" xmlns:rdf="http://www.w3.org/1999/02/22-rdf-syntax-ns#">
   <cc:Work>
    <dc:type rdf:resource="http://purl.org/dc/dcmitype/StillImage"/>
    <dc:date>2025-11-10T00:46:48.119535</dc:date>
    <dc:format>image/svg+xml</dc:format>
    <dc:creator>
     <cc:Agent>
      <dc:title>Matplotlib v3.10.6, https://matplotlib.org/</dc:title>
     </cc:Agent>
    </dc:creator>
   </cc:Work>
  </rdf:RDF>
 </metadata>
 <defs>
  <style type="text/css">*{stroke-linejoin: round; stroke-linecap: butt}</style>
 </defs>
 <g id="figure_1">
  <g id="patch_1">
   <path d="M -0 195.895404 
L 312.833105 195.895404 
L 312.833105 0 
L -0 0 
z
" style="fill: #ffffff"/>
  </g>
  <g id="axes_1">
   <g id="patch_2">
    <path d="M 33.553125 163.415404 
L 300.893105 163.415404 
L 300.893105 1.44 
L 33.553125 1.44 
z
" style="fill: #ffffff"/>
   </g>
   <g id="matplotlib.axis_1">
    <g id="xtick_1">
     <g id="line2d_1">
      <path d="M 33.553125 163.415404 
L 33.553125 1.44 
" clip-path="url(#p2b24c40917)" style="fill: none; stroke-dasharray: 1.85,0.8; stroke-dashoffset: 0; stroke: #bbbbbb; stroke-width: 0.5"/>
     </g>
     <g id="line2d_2"/>
     <g id="text_1">
      <text style="font-size: 12px; font-family: 'Nimbus Roman', serif; text-anchor: middle; fill: #262626" x="33.553125" y="175.111029" transform="rotate(-0 33.553125 175.111029)">0.00</text>
     </g>
    </g>
    <g id="xtick_2">
     <g id="line2d_3">
      <path d="M 87.021121 163.415404 
L 87.021121 1.44 
" clip-path="url(#p2b24c40917)" style="fill: none; stroke-dasharray: 1.85,0.8; stroke-dashoffset: 0; stroke: #bbbbbb; stroke-width: 0.5"/>
     </g>
     <g id="line2d_4"/>
     <g id="text_2">
      <text style="font-size: 12px; font-family: 'Nimbus Roman', serif; text-anchor: middle; fill: #262626" x="87.021121" y="175.111029" transform="rotate(-0 87.021121 175.111029)">0.01</text>
     </g>
    </g>
    <g id="xtick_3">
     <g id="line2d_5">
      <path d="M 140.489117 163.415404 
L 140.489117 1.44 
" clip-path="url(#p2b24c40917)" style="fill: none; stroke-dasharray: 1.85,0.8; stroke-dashoffset: 0; stroke: #bbbbbb; stroke-width: 0.5"/>
     </g>
     <g id="line2d_6"/>
     <g id="text_3">
      <text style="font-size: 12px; font-family: 'Nimbus Roman', serif; text-anchor: middle; fill: #262626" x="140.489117" y="175.111029" transform="rotate(-0 140.489117 175.111029)">0.02</text>
     </g>
    </g>
    <g id="xtick_4">
     <g id="line2d_7">
      <path d="M 193.957113 163.415404 
L 193.957113 1.44 
" clip-path="url(#p2b24c40917)" style="fill: none; stroke-dasharray: 1.85,0.8; stroke-dashoffset: 0; stroke: #bbbbbb; stroke-width: 0.5"/>
     </g>
     <g id="line2d_8"/>
     <g id="text_4">
      <text style="font-size: 12px; font-family: 'Nimbus Roman', serif; text-anchor: middle; fill: #262626" x="193.957113" y="175.111029" transform="rotate(-0 193.957113 175.111029)">0.03</text>
     </g>
    </g>
    <g id="xtick_5">
     <g id="line2d_9">
      <path d="M 247.425109 163.415404 
L 247.425109 1.44 
" clip-path="url(#p2b24c40917)" style="fill: none; stroke-dasharray: 1.85,0.8; stroke-dashoffset: 0; stroke: #bbbbbb; stroke-width: 0.5"/>
     </g>
     <g id="line2d_10"/>
     <g id="text_5">
      <text style="font-size: 12px; font-family: 'Nimbus Roman', serif; text-anchor: middle; fill: #262626" x="247.425109" y="175.111029" transform="rotate(-0 247.425109 175.111029)">0.04</text>
     </g>
    </g>
    <g id="xtick_6">
     <g id="line2d_11">
      <path d="M 300.893105 163.415404 
L 300.893105 1.44 
" clip-path="url(#p2b24c40917)" style="fill: none; stroke-dasharray: 1.85,0.8; stroke-dashoffset: 0; stroke: #bbbbbb; stroke-width: 0.5"/>
     </g>
     <g id="line2d_12"/>
     <g id="text_6">
      <text style="font-size: 12px; font-family: 'Nimbus Roman', serif; text-anchor: middle; fill: #262626" x="300.893105" y="175.111029" transform="rotate(-0 300.893105 175.111029)">0.05</text>
     </g>
    </g>
    <g id="text_7">
     <!-- Transmittance $\eta$ -->
     <g transform="translate(121.933115 191.375404)">
      <text>
       <tspan x="0" y="-0.171875" style="font-size: 14px; font-family: 'Nimbus Roman'">T</tspan>
       <tspan x="8.553986" y="-0.171875" style="font-size: 14px; font-family: 'Nimbus Roman'">r</tspan>
       <tspan x="13.215973" y="-0.171875" style="font-size: 14px; font-family: 'Nimbus Roman'">a</tspan>
       <tspan x="19.431961" y="-0.171875" style="font-size: 14px; font-family: 'Nimbus Roman'">n</tspan>
       <tspan x="26.431961" y="-0.171875" style="font-size: 14px; font-family: 'Nimbus Roman'">s</tspan>
       <tspan x="31.87796" y="-0.171875" style="font-size: 14px; font-family: 'Nimbus Roman'">m</tspan>
       <tspan x="42.769958" y="-0.171875" style="font-size: 14px; font-family: 'Nimbus Roman'">i</tspan>
       <tspan x="46.661957" y="-0.171875" style="font-size: 14px; font-family: 'Nimbus Roman'">t</tspan>
       <tspan x="50.553955" y="-0.171875" style="font-size: 14px; font-family: 'Nimbus Roman'">t</tspan>
       <tspan x="54.445953" y="-0.171875" style="font-size: 14px; font-family: 'Nimbus Roman'">a</tspan>
       <tspan x="60.661942" y="-0.171875" style="font-size: 14px; font-family: 'Nimbus Roman'">n</tspan>
       <tspan x="67.661942" y="-0.171875" style="font-size: 14px; font-family: 'Nimbus Roman'">c</tspan>
       <tspan x="73.87793" y="-0.171875" style="font-size: 14px; font-family: 'Nimbus Roman'">e</tspan>
       <tspan x="80.093918" y="-0.171875" style="font-size: 14px; font-family: 'Nimbus Roman'"> </tspan>
       <tspan x="83.593918" y="-0.171875" style="font-size: 14px; font-family: 'cmmi10'">´</tspan>
      </text>
     </g>
    </g>
   </g>
   <g id="matplotlib.axis_2">
    <g id="ytick_1">
     <g id="line2d_13">
      <path d="M 33.553125 156.089372 
L 300.893105 156.089372 
" clip-path="url(#p2b24c40917)" style="fill: none; stroke-dasharray: 1.85,0.8; stroke-dashoffset: 0; stroke: #bbbbbb; stroke-width: 0.5"/>
     </g>
     <g id="line2d_14"/>
     <g id="text_8">
      <text style="font-size: 12px; font-family: 'Nimbus Roman', serif; text-anchor: end; fill: #262626" x="30.053125" y="160.187184" transform="rotate(-0 30.053125 160.187184)">0</text>
     </g>
    </g>
    <g id="ytick_2">
     <g id="line2d_15">
      <path d="M 33.553125 119.838608 
L 300.893105 119.838608 
" clip-path="url(#p2b24c40917)" style="fill: none; stroke-dasharray: 1.85,0.8; stroke-dashoffset: 0; stroke: #bbbbbb; stroke-width: 0.5"/>
     </g>
     <g id="line2d_16"/>
     <g id="text_9">
      <text style="font-size: 12px; font-family: 'Nimbus Roman', serif; text-anchor: end; fill: #262626" x="30.053125" y="123.93642" transform="rotate(-0 30.053125 123.93642)">20</text>
     </g>
    </g>
    <g id="ytick_3">
     <g id="line2d_17">
      <path d="M 33.553125 83.587844 
L 300.893105 83.587844 
" clip-path="url(#p2b24c40917)" style="fill: none; stroke-dasharray: 1.85,0.8; stroke-dashoffset: 0; stroke: #bbbbbb; stroke-width: 0.5"/>
     </g>
     <g id="line2d_18"/>
     <g id="text_10">
      <text style="font-size: 12px; font-family: 'Nimbus Roman', serif; text-anchor: end; fill: #262626" x="30.053125" y="87.685657" transform="rotate(-0 30.053125 87.685657)">40</text>
     </g>
    </g>
    <g id="ytick_4">
     <g id="line2d_19">
      <path d="M 33.553125 47.33708 
L 300.893105 47.33708 
" clip-path="url(#p2b24c40917)" style="fill: none; stroke-dasharray: 1.85,0.8; stroke-dashoffset: 0; stroke: #bbbbbb; stroke-width: 0.5"/>
     </g>
     <g id="line2d_20"/>
     <g id="text_11">
      <text style="font-size: 12px; font-family: 'Nimbus Roman', serif; text-anchor: end; fill: #262626" x="30.053125" y="51.434893" transform="rotate(-0 30.053125 51.434893)">60</text>
     </g>
    </g>
    <g id="ytick_5">
     <g id="line2d_21">
      <path d="M 33.553125 11.086316 
L 300.893105 11.086316 
" clip-path="url(#p2b24c40917)" style="fill: none; stroke-dasharray: 1.85,0.8; stroke-dashoffset: 0; stroke: #bbbbbb; stroke-width: 0.5"/>
     </g>
     <g id="line2d_22"/>
     <g id="text_12">
      <text style="font-size: 12px; font-family: 'Nimbus Roman', serif; text-anchor: end; fill: #262626" x="30.053125" y="15.184129" transform="rotate(-0 30.053125 15.184129)">80</text>
     </g>
    </g>
    <g id="text_13">
     <text style="font-size: 14px; font-family: 'Nimbus Roman', serif; text-anchor: middle" x="11.001563" y="82.427702" transform="rotate(-90 11.001563 82.427702)">Probability distribution</text>
    </g>
   </g>
   <g id="line2d_23">
    <path d="M 37.326361 145.598798 
L 44.8723 141.245816 
L 52.416634 132.225162 
L 59.966315 118.19418 
L 67.510649 99.294744 
L 75.054984 76.726511 
L 82.599318 53.093107 
L 90.122265 32.201208 
L 97.71472 18.17506 
L 105.253708 14.133137 
L 112.792695 21.026477 
L 120.331683 37.257599 
L 127.87067 59.298615 
L 135.409657 82.970361 
L 142.948645 104.731885 
L 150.5411 122.443619 
L 158.080088 135.450583 
L 165.619075 144.18228 
L 173.158063 149.597578 
L 180.69705 152.729775 
L 188.236038 154.433537 
L 195.775025 155.310743 
L 203.314012 155.739714 
L 210.906468 155.93903 
L 218.445455 156.026959 
" clip-path="url(#p2b24c40917)" style="fill: none; stroke: #d81b60; stroke-width: 1.4; stroke-linecap: round"/>
   </g>
   <g id="patch_3">
    <path d="M 33.553125 163.415404 
L 33.553125 1.44 
" style="fill: none; stroke: #cccccc; stroke-linejoin: miter; stroke-linecap: square"/>
   </g>
   <g id="patch_4">
    <path d="M 300.893105 163.415404 
L 300.893105 1.44 
" style="fill: none; stroke: #cccccc; stroke-linejoin: miter; stroke-linecap: square"/>
   </g>
   <g id="patch_5">
    <path d="M 33.553125 163.415404 
L 300.893105 163.415404 
" style="fill: none; stroke: #cccccc; stroke-linejoin: miter; stroke-linecap: square"/>
   </g>
   <g id="patch_6">
    <path d="M 33.553125 1.44 
L 300.893105 1.44 
" style="fill: none; stroke: #cccccc; stroke-linejoin: miter; stroke-linecap: square"/>
   </g>
   <g id="line2d_24">
    <path d="M 37.326361 146.056973 
L 44.8723 91.037376 
L 52.416634 61.202997 
L 59.966315 53.481585 
L 67.510649 56.508523 
L 75.054984 63.976181 
L 90.122265 81.829682 
L 97.71472 90.203608 
L 105.253708 97.761893 
L 112.792695 104.486409 
L 120.331683 110.395284 
L 127.87067 115.561018 
L 135.409657 120.074238 
L 142.948645 124.025571 
L 150.5411 127.487519 
L 158.080088 130.496332 
L 165.619075 133.160764 
L 173.158063 135.480812 
L 180.69705 137.528981 
L 188.236038 139.343331 
L 195.775025 140.945615 
L 203.314012 142.364832 
L 210.906468 143.628172 
L 218.445455 144.753758 
L 233.52343 146.656923 
L 248.601405 148.186705 
L 263.67938 149.426481 
L 278.810823 150.43969 
L 293.888798 151.271645 
L 313.833105 152.154625 
L 313.833105 152.154625 
" clip-path="url(#p2b24c40917)" style="fill: none; stroke: #e53935; stroke-width: 1.4; stroke-linecap: round"/>
   </g>
   <g id="line2d_25">
    <path d="M 37.326361 8.802518 
L 44.8723 52.176557 
L 52.416634 70.33819 
L 59.966315 81.974685 
L 67.510649 90.566116 
L 75.054984 97.363134 
L 82.599318 103.000128 
L 90.122265 107.785229 
L 97.71472 111.935941 
L 105.253708 115.579143 
L 112.792695 118.805461 
L 120.331683 121.705522 
L 127.87067 124.315577 
L 135.409657 126.690002 
L 142.948645 128.828797 
L 150.5411 130.804464 
L 158.080088 132.598877 
L 165.619075 134.248286 
L 173.158063 135.770818 
L 180.69705 137.166473 
L 188.236038 138.457 
L 195.775025 139.651463 
L 203.314012 140.758924 
L 210.906468 141.783008 
L 218.445455 142.73459 
L 225.984443 143.619109 
L 233.52343 144.440189 
L 241.062418 145.20508 
L 248.601405 145.915595 
L 256.140393 146.578984 
L 263.67938 147.197059 
L 271.271835 147.771634 
L 278.810823 148.308145 
L 286.34981 148.810218 
L 293.888798 149.277853 
L 301.427785 149.714675 
L 308.966773 150.122496 
L 313.833105 150.36936 
" clip-path="url(#p2b24c40917)" style="fill: none; stroke: #3949ab; stroke-width: 1.4; stroke-linecap: round"/>
   </g>
   <g id="line2d_26">
    <path d="M 37.326361 72.74657 
L 44.8723 71.872217 
L 52.416634 70.971683 
L 59.966315 71.220768 
L 67.510649 73.46351 
L 75.054984 77.841787 
L 82.599318 83.8602 
L 90.122265 90.722575 
L 97.71472 97.675981 
L 105.253708 104.202233 
L 112.792695 110.045822 
L 120.331683 115.149479 
L 127.87067 119.570133 
L 135.409657 123.40604 
L 142.948645 126.753556 
L 150.5411 129.69128 
L 158.080088 132.274333 
L 165.619075 134.539443 
L 173.158063 136.516291 
L 180.69705 138.237062 
L 188.236038 139.740165 
L 195.775025 141.066897 
L 203.314012 142.254526 
L 210.906468 143.330594 
L 218.445455 144.311539 
L 225.984443 145.205617 
L 233.52343 146.017425 
L 241.062418 146.751816 
L 248.601405 147.415454 
L 256.140393 148.016114 
L 263.67938 148.561136 
L 271.271835 149.057137 
L 278.810823 149.511259 
L 286.34981 149.931864 
L 293.888798 150.326881 
L 301.427785 150.700571 
L 308.966773 151.052104 
L 313.833105 151.262492 
" clip-path="url(#p2b24c40917)" style="fill: none; stroke: #000000; stroke-width: 1.4; stroke-linecap: round"/>
   </g>
   <g id="PathCollection_1">
    <defs>
     <path id="m411dadfd48" d="M 0 5 
C 1.326016 5 2.597899 4.473168 3.535534 3.535534 
C 4.473168 2.597899 5 1.326016 5 0 
C 5 -1.326016 4.473168 -2.597899 3.535534 -3.535534 
C 2.597899 -4.473168 1.326016 -5 0 -5 
C -1.326016 -5 -2.597899 -4.473168 -3.535534 -3.535534 
C -4.473168 -2.597899 -5 -1.326016 -5 0 
C -5 1.326016 -4.473168 2.597899 -3.535534 3.535534 
C -2.597899 4.473168 -1.326016 5 0 5 
z
" style="stroke: #000000; stroke-width: 1.2"/>
    </defs>
    <g>
     <use xlink:href="#m411dadfd48" x="90.122265" y="90.722575" style="fill: #ffffff; stroke: #000000; stroke-width: 1.2"/>
    </g>
   </g>
   <g id="PathCollection_2">
    <defs>
     <path id="mcdbe8bb31a" d="M 0 5 
C 1.326016 5 2.597899 4.473168 3.535534 3.535534 
C 4.473168 2.597899 5 1.326016 5 0 
C 5 -1.326016 4.473168 -2.597899 3.535534 -3.535534 
C 2.597899 -4.473168 1.326016 -5 0 -5 
C -1.326016 -5 -2.597899 -4.473168 -3.535534 -3.535534 
C -4.473168 -2.597899 -5 -1.326016 -5 0 
C -5 1.326016 -4.473168 2.597899 -3.535534 3.535534 
C -2.597899 4.473168 -1.326016 5 0 5 
z
" style="stroke: #e53935; stroke-width: 1.2"/>
    </defs>
    <g>
     <use xlink:href="#mcdbe8bb31a" x="67.510649" y="56.508523" style="fill: #ffffff; stroke: #e53935; stroke-width: 1.2"/>
    </g>
   </g>
   <g id="PathCollection_3">
    <defs>
     <path id="mc0d5b82733" d="M 0 5 
C 1.326016 5 2.597899 4.473168 3.535534 3.535534 
C 4.473168 2.597899 5 1.326016 5 0 
C 5 -1.326016 4.473168 -2.597899 3.535534 -3.535534 
C 2.597899 -4.473168 1.326016 -5 0 -5 
C -1.326016 -5 -2.597899 -4.473168 -3.535534 -3.535534 
C -4.473168 -2.597899 -5 -1.326016 -5 0 
C -5 1.326016 -4.473168 2.597899 -3.535534 3.535534 
C -2.597899 4.473168 -1.326016 5 0 5 
z
" style="stroke: #3949ab; stroke-width: 1.2"/>
    </defs>
    <g>
     <use xlink:href="#mc0d5b82733" x="82.599318" y="103.000128" style="fill: #ffffff; stroke: #3949ab; stroke-width: 1.2"/>
    </g>
   </g>
   <g id="PathCollection_4">
    <defs>
     <path id="m23dad64747" d="M 0 5 
C 1.326016 5 2.597899 4.473168 3.535534 3.535534 
C 4.473168 2.597899 5 1.326016 5 0 
C 5 -1.326016 4.473168 -2.597899 3.535534 -3.535534 
C 2.597899 -4.473168 1.326016 -5 0 -5 
C -1.326016 -5 -2.597899 -4.473168 -3.535534 -3.535534 
C -4.473168 -2.597899 -5 -1.326016 -5 0 
C -5 1.326016 -4.473168 2.597899 -3.535534 3.535534 
C -2.597899 4.473168 -1.326016 5 0 5 
z
" style="stroke: #d81b60; stroke-width: 1.2"/>
    </defs>
    <g>
     <use xlink:href="#m23dad64747" x="127.87067" y="59.298615" style="fill: #ffffff; stroke: #d81b60; stroke-width: 1.2"/>
    </g>
   </g>
   <g id="text_14">
    <text style="font-weight: 700; font-size: 8px; font-family: 'Arial', 'Liberation Sans', 'DejaVu Sans', 'Bitstream Vera Sans', sans-serif; text-anchor: middle" x="89.587585" y="93.426867" transform="rotate(-0 89.587585 93.426867)">N</text>
   </g>
   <g id="text_15">
    <text style="font-weight: 700; font-size: 8px; font-family: 'Arial', 'Liberation Sans', 'DejaVu Sans', 'Bitstream Vera Sans', sans-serif; text-anchor: middle; fill: #e53935" x="67.510649" y="59.50058" transform="rotate(-0 67.510649 59.50058)">L</text>
   </g>
   <g id="text_16">
    <text style="font-weight: 700; font-size: 8px; font-family: 'Arial', 'Liberation Sans', 'DejaVu Sans', 'Bitstream Vera Sans', sans-serif; text-anchor: middle; fill: #3949ab" x="82.54585" y="105.590708" transform="rotate(-0 82.54585 105.590708)">B</text>
   </g>
   <g id="text_17">
    <text style="font-weight: 700; font-size: 8px; font-family: 'Arial', 'Liberation Sans', 'DejaVu Sans', 'Bitstream Vera Sans', sans-serif; text-anchor: middle; fill: #d81b60" x="127.87067" y="62.289959" transform="rotate(-0 127.87067 62.289959)">E</text>
   </g>
  </g>
 </g>
 <defs>
  <clipPath id="p2b24c40917">
   <rect x="33.553125" y="1.44" width="267.33998" height="161.975404"/>
  </clipPath>
 </defs>
</svg>
